<svg width="18" height="18" viewBox="0 0 18 18" fill="none" xmlns="http://www.w3.org/2000/svg">
<path d="M17.21 5.70996L12.28 0.779968C11.78 0.279968 11.1 0 10.39 0H6C2.69 0 0 2.69 0 6V12C0 15.31 2.69 18 6 18H12C15.31 18 18 15.31 18 12V7.60999C18 6.89999 17.72 6.21997 17.22 5.71997L17.21 5.70996ZM11.74 3.07001L14.93 6.26001H13.34C12.46 6.26001 11.74 5.59001 11.74 4.76001V3.07001ZM11.99 15.99H5.98999C3.77999 15.99 1.98999 14.2 1.98999 11.99V5.98999C1.98999 3.77999 3.77999 1.98999 5.98999 1.98999H9.72998V4.76001C9.72998 6.69001 11.35 8.26001 13.33 8.26001H15.98V11.99C15.98 14.2 14.19 15.99 11.98 15.99H11.99Z" fill="#96AADD"/>
</svg>
